<?xml version="1.0" encoding="UTF-8"?>
<svg id="_圖層_1" data-name="圖層 1" xmlns="http://www.w3.org/2000/svg" width="310.21" height="75.06" viewBox="0 0 310.21 75.06">
  <defs>
    <style>
      .cls-1 {
        fill: #231916;
      }

      .cls-2, .cls-3 {
        fill: #fff;
      }

      .cls-4 {
        fill: none;
      }

      .cls-5 {
        fill: #008bd5;
      }

      .cls-6 {
        fill: #004097;
      }

      .cls-7 {
        fill: #009844;
      }

      .cls-8 {
        fill: #e50013;
      }

      .cls-3 {
        stroke: #fff;
        stroke-linejoin: round;
        stroke-width: .29px;
      }

      .cls-9 {
        fill: #fff000;
      }
    </style>
  </defs>
  <g id="_圖層_2" data-name="圖層 2">
    <path class="cls-4" d="M19.55,49.45l-.27-3.45c-.03-.14-.03-.28,0-.42l1.25-4c-.77.12-1.58.26-2.4.42-7.06,1.39-8.61,3-9,3.7-.19.44-.11.94.2,1.3.07.11.09.11.1.21s1.05,1.51,5,2.35c.6.16.96.77.8,1.37-.07.26-.22.48-.44.63h.62c.22,0,.44.07.63.19.19-.12.41-.19.63-.19h2.16c.1-.02.2-.02.3,0h.13c-.16-.27-.2-.6-.11-.91l.4-1.2Z"/>
    <path class="cls-2" d="M73.12,52c-.21-.24-.51-.38-.83-.38h-2.84c-.12,0-.24.02-.36.06-.12-.04-.24-.06-.36-.06h-3c-.13,0-.27.03-.39.08-.14-.07-.3-.1-.46-.1h-6.1c-.17,0-.34.04-.5.11-.15-.07-.32-.11-.49-.11h-2.73c-.2,0-.39.05-.56.14-.17-.09-.36-.14-.55-.14h-4.11l5.16-20.16c0-.09,0-.18,0-.27v-4.47l3-6.7c.12-.27.12-.58,0-.85h0c.33-.11.59-.37.7-.7l.83-2.45c.16-.47-.01-.99-.42-1.28l-1.72-1.22-.13-2.5,2.6-3.32c.19-.25.27-.56.22-.87-.03-.33-.2-.62-.47-.81l-2.61-1.71c-.17-.12-.37-.18-.58-.19l-2.5-.1-1.26-2.56c-.14-.29-.41-.51-.73-.59l-3.31-.85c-.12-.02-.25-.02-.37,0h-.07c-.17,0-.33.04-.48.11l-2.18,1c-.38.18-.63.57-.63,1v1.24l-1,.78-2.42.29c-.16.02-.31.07-.45.16l-1.43.87-.09.07-3.09,2.35c-.11.09-.21.19-.28.31l-3.94,6.51c-.12.18-.17.39-.16.61v1l-.68.14c-.36.07-.66.31-.8.65l-.93,2.08c-.07.09-.13.19-.18.29v.08h0l-.15.37c-3.55.64-6,1.24-6.09,1.27-4.98,1.14-9.77,3.02-14.2,5.56-2.67,1.52-4.96,3.63-6.71,6.15-2.61,4-1.83,7.25-1.8,7.39.12.47.52.81,1,.84-.07,1.31.1,2.63.51,3.88.13.33.4.58.74.68.08.36.18.72.32,1.07.17.4.56.67,1,.68h.31c.05.2.12.39.2.58.17.4.56.67,1,.68h.16c.08,0,.17,0,.25,0,.08-.02.16-.05.23-.08,1.53,2.11,4.8,2.87,6.55,3.12-.34.09-.62.34-.75.67-.66-.47-1.47-.71-2.28-.68h-.08c-.73-.01-1.46.17-2.1.52-.03-.08-.07-.16-.11-.24-.21-.24-.52-.37-.84-.37H1.35c-.57,0-1.06.43-1.12,1l-.22,2c-.04.32.06.64.28.87.21.24.51.37.83.37h0l-.49,4.57c-.04.32.06.64.27.88.21.24.52.37.84.37h2.56c.57,0,1.05-.43,1.11-1l.08-.69c.25.43.59.81,1,1.09.66.42,1.44.64,2.23.61h.16c.82.01,1.63-.22,2.32-.66.31-.2.58-.44.83-.71.28.39.65.71,1.07.94.63.29,1.31.43,2,.41h.31c.8.02,1.58-.15,2.29-.52.03.05.06.09.1.13.21.23.51.37.83.37h2.09c.24,0,.48-.08.67-.22.19.14.42.22.66.22h2.39c.37,0,.71-.18.92-.48.03-.04.05-.08.07-.12l1.57,2.35c.19.29.51.48.86.51l2.83.19,4.71,4.11.41,1.78-.17.22c-.24.3-.31.71-.18,1.07l.86,2.4c.12.33.39.59.73.69l1.43.44c.1.03.21.05.32.05h.09c.27.01.53-.07.75-.22v-.05l.05.06c.22.24.52.37.84.37h.16c.11.02.23.02.34,0l1.72-.55c.54-.17.87-.73.75-1.29l-.37-1.8.35-.56c.12-.2.17-.43.16-.66l-.38-5.43.74-1.33c.13-.25.16-.54.08-.81l-.26-.91h.32c.31,0,.61-.13.82-.36.21.23.51.36.82.36h2.38c.1.03.21.05.32.05h2.32c.22,0,.44-.07.63-.19.17.09.36.14.55.14h3.07c.18,0,.35-.04.51-.12.16.08.33.12.51.12h2.93c.08.01.15.01.23,0h2.14c.34,0,.67-.16.88-.43.22.27.54.43.89.43h2.45c.08,0,.16,0,.24,0h1.84c.17,0,.34-.04.49-.11.15.07.32.11.49.11h2.73c.57,0,1.05-.43,1.11-1l.94-7.81c.03-.32-.08-.65-.31-.88ZM47.43,53.14l-4.54,5.53,2.23-5.93h2.27l.04.4ZM42.31,60.57h-.14l.08-.21.06.21ZM43.76,54.78h-1.4l-.68,5.79h-2.4l.72-5.79h-1.3l.23-2h5.07l-.24,2ZM36.47,58.78l-.2,1.77h-4.18l.82-7.83h4.19l-.2,1.67h-2.35l-.14,1.25h2.15l-.19,1.6h-2.15l-.22,1.56,2.47-.02ZM31.9,56.63c-.05.66-.18,1.32-.39,1.95-.15.42-.36.81-.64,1.16-.19.28-.46.5-.77.63-.3.13-.62.2-.94.21h-2.32l.6-7.84h2.56c.38-.02.76.08,1.07.29.28.21.49.5.61.83.15.4.24.82.26,1.25.03.51.02,1.02-.04,1.52ZM24.24,57l-2.76-4.21h.89c1.31.01,2.38,1.07,2.4,2.38.02.65-.17,1.29-.53,1.83ZM19.24,51.68h-.13c-.1-.02-.2-.02-.3,0h-2.14c-.22,0-.44.07-.63.19-.19-.12-.41-.19-.63-.19h-.62c.51-.36.63-1.05.27-1.56-.15-.22-.38-.37-.63-.44-3.95-.84-4.87-2.13-5-2.35s0-.1-.1-.21c-.29-.38-.34-.89-.12-1.31.35-.65,1.9-2.31,9-3.7.82-.16,1.63-.3,2.4-.42l-1.25,4c-.03.14-.03.28,0,.42l.27,3.44-.4,1.27c-.09.26-.08.55.03.81l-.02.05Z"/>
    <path class="cls-2" d="M29.46,54.2h-.55l-.33,4.41h.42c.26.02.52-.04.74-.17.18-.16.31-.37.39-.6.14-.46.23-.93.27-1.41.11-.58.09-1.19-.08-1.76-.15-.33-.5-.52-.86-.47Z"/>
    <polygon class="cls-2" points="47.39 52.74 45.12 52.74 42.89 58.67 47.43 53.14 47.39 52.74"/>
    <path class="cls-2" d="M22.37,52.74h-.89l2.76,4.26c.36-.54.55-1.18.53-1.83,0-1.33-1.07-2.42-2.4-2.43Z"/>
    <path class="cls-2" d="M31.07,53c-.32-.2-.69-.29-1.07-.26h-2.56l-.6,7.84h2.32c.32-.01.64-.08.94-.21.31-.13.58-.35.77-.63.28-.35.49-.74.64-1.16.21-.63.34-1.29.39-1.95.04-.51.04-1.01,0-1.52-.02-.43-.11-.85-.26-1.25-.1-.34-.3-.63-.57-.86ZM30.37,56.4c-.04.48-.13.95-.27,1.41-.08.23-.21.44-.39.6-.22.13-.48.19-.74.17h-.39l.33-4.41h.55c.35-.03.68.15.83.47.17.58.2,1.2.08,1.79v-.03Z"/>
    <polygon class="cls-2" points="36.37 57.26 36.56 55.66 34.41 55.66 34.55 54.41 36.9 54.41 37.1 52.74 32.91 52.74 32.09 60.57 36.27 60.57 36.48 58.8 34.04 58.8 34.22 57.26 36.37 57.26"/>
    <polygon class="cls-2" points="38.66 54.78 39.96 54.78 39.27 60.57 41.68 60.57 42.36 54.78 43.76 54.78 43.98 52.77 38.89 52.77 38.66 54.78"/>
    <polygon class="cls-2" points="42.17 60.57 42.31 60.57 42.25 60.36 42.17 60.57"/>
    <polygon class="cls-3" points="30.47 19.95 30.47 19.95 30.5 19.87 30.47 19.95"/>
    <path class="cls-3" d="M9.65,52.76c-.9-.03-1.76.34-2.37,1-.69.83-1.1,1.85-1.18,2.92-.12.74-.08,1.5.12,2.22.14.52.46.98.89,1.3.48.29,1.03.44,1.59.41.6.01,1.19-.15,1.7-.48.5-.33.91-.79,1.18-1.32.34-.69.55-1.43.63-2.19.2-.97.05-1.98-.43-2.85-.48-.69-1.29-1.08-2.13-1.01ZM10.08,56.62c-.03.53-.18,1.04-.45,1.5-.18.26-.47.41-.79.41-.29.01-.56-.16-.68-.42-.16-.45-.2-.93-.1-1.4.03-.5.18-.99.45-1.41.17-.26.46-.42.77-.43.29-.01.57.15.69.42.17.42.21.89.11,1.33Z"/>
    <path class="cls-3" d="M16.67,52.74l-.55,4.71c-.09.77-.25,1-.69,1-.86,0-.79-.6-.74-1l.55-4.71h-2.1l-.52,4.61c-.05.49-.05.97,0,1.46.08.63.45,1.19,1,1.5.52.22,1.08.32,1.64.28.84.05,1.67-.23,2.3-.79.47-.56.7-1.28.64-2l.48-5-2.01-.06Z"/>
    <polygon class="cls-3" points="6.44 52.77 1.35 52.77 1.12 54.78 2.42 54.78 1.74 60.57 4.14 60.57 4.83 54.78 6.22 54.78 6.44 52.77"/>
    <polygon class="cls-3" points="58.78 52.74 57.84 55.4 57.62 52.74 55.06 52.74 54.23 55.27 53.79 52.74 51.54 52.74 51.03 52.74 49.14 52.74 48.45 60.62 50.63 60.62 51.29 54.91 51.98 60.57 54.89 60.57 56.15 56.83 56.07 60.57 58.8 60.57 61.76 52.74 58.78 52.74"/>
    <path class="cls-3" d="M69.45,52.76l-.3,2.24-.58-2.23h-2.85l-.57,5.07-.44-5.09h-2.56l-2.95,7.85h2l.67-1.66h1.13l.13,1.66h4.36l.29-2.32.86,2.32h2.56l.94-7.81-2.69-.03ZM62.36,57.22l.42-.76.08.76h-.5Z"/>
    <path class="cls-3" d="M47.26,53.14h0l1.27-1.54,5.2-20.43v-4.7l3-6.89-.57-1.52,1.25.05.86-2.51-2.17-1.53-.1-3.45,2.81-3.62-2.57-1.78-3.24-.17-1.5-3.11-3.32-.82-2.18,1.04v1.74l-1.6,1.32-2.75.32-1.42.88-3.14,2.35-3.94,6.5.06,1.91-1.61.33-1.08,2.49h-.05l-.39.95c-3.89.68-6.62,1.37-6.62,1.37C-1.28,28.56,1.61,40,1.61,40c1.67-10.55,17.39-14.32,27.06-15.65l-.48,1.17c-4.85.76-8.83,1.61-8.83,1.61C-1.51,32.43,3.08,44.56,3.08,44.56c-1.06-11.08,14.41-15,24-16.38l-.42,1c-4.14.65-7,1.41-7,1.41C-.42,35.47,4.12,46.27,4.12,46.27c-.44-10.62,13.71-13.27,21.31-13.99l-.51,1.24c-2.56.26-5.09.69-7.59,1.29-15.61,3.59-11.67,12.71-11.67,12.71-.42-8.58,12.65-10.67,18.11-11.17l-.54,1.32c-12.94,1.33-15.72,5.65-15.72,5.65-3.94,6.68,6.49,7.34,6.49,7.34-5.26-1.1-5.84-3.09-5.84-3.09-2.59-4.57,8.12-6.57,14.04-7.39l-.37.9h.07l-1.51,4.85.29,3.66-.46,1.47,1.1,1.69h-1.9l-.79,7.83h1.93l.3-3c.23.29,1.19,3,1.19,3h2.23s-1-2.75-1.07-3c.05.14.48-.08.85-.61l3.82,5.86,3.21.22,5.26,4.59.65,2.64-.51.66.85,2.4,1.43.44v-.71l1.09.11.69.76,1.71-.54-.46-2.24.58-.93-.38-5.74.8-1.58-.67-2.34h1.8l.44-1.57h1.26l.12,1.53h2.25l-.76-7.43.02.04ZM27,27.08c.22-.1.45-.19.68-.27l-.08.19-.6.08ZM25.67,30.94l.33-.14-.05.1-.28.04ZM21.54,56.08h-.54l.18-1.52h.57c.22,0,.38.32.36.69-.04.75-.48.83-.57.83ZM41.89,59.68l.83-1-.63,1.7-.2-.7ZM45,57.19l.41-1,.11,1h-.52Z"/>
    <polyline class="cls-6" points="22.1 40.95 20.56 45.92 20.84 49.58 20.38 51.05 28.05 62.8 31.25 63.02 36.51 67.61 37.2 70.28 36.68 70.94 37.54 73.34 38.97 73.78 38.97 73.07 40.06 73.18 40.74 73.94 42.46 73.4 42 71.16 42.57 70.23 42.17 64.49 42.97 62.91 42.06 59.69 48.69 51.6 53.89 31.17 53.89 26.46 56.93 19.59 56.35 18.05 57.61 18.11 58.47 15.6 56.29 14.07 56.12 10.62 58.98 6.97 56.41 5.22 53.21 5.05 51.66 1.94 48.35 1.12 46.17 2.16 46.12 3.9 44.52 5.22 41.77 5.54 40.34 6.42 37.25 8.77 33.31 15.27 33.37 17.18 31.77 17.51 30.68 19.97 30.64 20.05"/>
    <path class="cls-2" d="M22,41.08c3.64-.73,12-.83,12-.83l.45-.77h-4.3c.45-.27.86-.61,1.21-1l1.1-.06-.29-.66,1.33-1.5c.41,1.94,1.85.23,1.85.23h.65c-.21.82-.23,1.68-.07,2.51,1.73,3.82,7.58-1.71,7.58-1.71,6.18-7.29,1.33-8.29,1.33-8.29l1.26-.66,2.43,1.38c.06,1.27.87,1,.87,1,1.22.11.35-1.94.35-1.94.25-1.54.41-3.09.47-4.64-.12-1.1-.12-2.22,0-3.32.1-.68-.12-1.37-.59-1.87l.06-.22h.46v-.83h.41l.11-.5c1-1.93-.34-2.76-.34-2.76-2.78-1.27-3.41,1.88-3.41,1.88l-1.1-.61c-1.1-.61-2.55.39-2.55.39-.17.4-.45.75-.8,1-.58.35-2.47,1.7-2.47,1.7l-9.37,1v-.08"/>
    <path class="cls-6" d="M44,22c.5-.42,1.13-.66,1.79-.67,1,.06,2.25.17,2.42-.05,0,0-.23,1.43.41,2-.06.72-.06,1.43,0,2.15-1.25-1.49-2.84-2.66-4.62-3.43Z"/>
    <path class="cls-6" d="M48.53,26.83c-.37.6-.98,1-1.67,1.1l1.85,1.07.29-.17-.47-2Z"/>
    <path class="cls-6" d="M41.31,30.86s3.53-3.26,4.39-.22c0,0,1.16,3-3.76,7.07,0,0-6.71,5.14-5.26-1.27h2.83l.35-.72h-2.77c.45-1.64,1.47-3.06,2.89-4l.75.72s.58.44.58-.33v-1.25Z"/>
    <path class="cls-6" d="M42.35,28s-1.22.72-1.39,1.16-.52.56-1,.67-1,.44-.64.88l.35.44-3.35,2.93.86-2.38h1l.22-.49-.92-.11,1.33-3.37c1.19-.15,2.39-.06,3.54.27Z"/>
    <path class="cls-6" d="M42.7,27.38c-1.23-.17-2.46-.24-3.7-.22.27-.59.61-1.14,1-1.66,1.3.27,2.62.42,3.94.44.75-.16.75.28.29.45-.54.28-1.05.61-1.53.99Z"/>
    <polygon class="cls-6" points="37.78 27.82 36.8 31.14 35.52 31.19 35.47 30.64 37.78 27.82"/>
    <polygon class="cls-6" points="35.35 31.75 36.51 31.69 35.93 33.18 34.83 33.79 35.35 31.75"/>
    <path class="cls-6" d="M34.25,32.41c.03.8-.19,1.59-.63,2.26l-.46,1.16-1.16.11c.16-.8.57-1.53,1.16-2.09.48-.38.86-.87,1.09-1.44Z"/>
    <path class="cls-6" d="M30.84,32.24h.87c-.21.65-.34,1.32-.41,2-.24.52-.45,1.06-.63,1.6h-2.67c.45-.94,1.06-1.8,1.79-2.54.43-.27.78-.63,1.05-1.06Z"/>
    <path class="cls-6" d="M27.49,36.72h2.6s-1.1.88-.23,1.21l.87.34s-3.47,2.65-3.7.27c.04-.63.19-1.25.46-1.82Z"/>
    <path class="cls-6" d="M31.59,36.5h.75s-.29.66-.57.77-.18-.77-.18-.77Z"/>
    <path class="cls-6" d="M45.82,21.3c-.67,0-1.32.26-1.82.7,1.79.78,3.37,1.97,4.62,3.47-.06-.72-.06-1.43,0-2.15-.64-.61-.41-2-.41-2-.14.15-1.41.04-2.39-.02Z"/>
    <path class="cls-6" d="M46.86,27.93l1.85,1.07.29-.17-.47-2c-.37.6-.98,1-1.67,1.1Z"/>
    <path class="cls-6" d="M36.68,36.44c-1.45,6.41,5.26,1.27,5.26,1.27,4.92-4.09,3.76-7.07,3.76-7.07-.86-3-4.39.22-4.39.22v1.22c0,.77-.58.33-.58.33l-.73-.72c-1.42.94-2.44,2.36-2.89,4h2.77l-.35.72-2.85.03Z"/>
    <path class="cls-6" d="M37.49,31.14l.92.11-.22.49h-1l-.86,2.38,3.35-2.93-.35-.44c-.35-.44.17-.77.64-.88s.81-.22,1-.67,1.38-1.2,1.38-1.2c-1.15-.33-2.35-.42-3.53-.27l-1.33,3.41Z"/>
    <path class="cls-6" d="M40,25.5c-.39.52-.73,1.07-1,1.66,1.24-.02,2.48.05,3.71.22.49-.38,1.01-.72,1.56-1,.46-.17.46-.61-.29-.45-1.34-.01-2.67-.16-3.98-.43Z"/>
    <polygon class="cls-6" points="35.52 31.19 36.8 31.14 37.78 27.82 35.47 30.64 35.52 31.19"/>
    <polygon class="cls-6" points="34.83 33.79 35.93 33.18 36.51 31.69 35.35 31.75 34.83 33.79"/>
    <path class="cls-6" d="M33.62,34.67c.44-.67.66-1.46.63-2.26-.23.57-.61,1.06-1.09,1.44-.59.56-1,1.29-1.16,2.09l1.16-.11.46-1.16Z"/>
    <path class="cls-6" d="M31.3,34.23c.07-.68.2-1.35.41-2h-.87c-.26.4-.6.74-1,1-.76.75-1.38,1.63-1.84,2.6h2.66c.19-.54.4-1.08.64-1.6Z"/>
    <path class="cls-6" d="M30.73,38.27l-.87-.34c-.87-.33.23-1.21.23-1.21h-2.6c-.28.57-.44,1.19-.49,1.82.26,2.38,3.73-.27,3.73-.27Z"/>
    <path class="cls-6" d="M31.77,37.27c.28-.11.57-.77.57-.77h-.75s-.12.88.18.77Z"/>
    <path class="cls-5" d="M40.6,19.67l-.92,1.4c-2.93-.09-5.85.39-8.59,1.42,1.96-.18,3.94-.24,5.91-.17l-.64,1.33S4.2,24.64,1.77,40c0,0-2.89-11.44,21.86-17.73,5.57-1.34,11.25-2.21,16.97-2.6Z"/>
    <path class="cls-8" d="M37.39,24.48l-.39,1.16s-6-.23-9.82,1.44c0,0,6.8-1.1,7.86-.89l-.35,1.27S1.72,28.56,3.25,44.56c0,0-4.6-12.13,16.28-17.43,5.89-1.25,11.86-2.13,17.86-2.65Z"/>
    <path class="cls-1" d="M34,28.44l-.7,1.23c-2.54-.09-5.08.34-7.45,1.27,0,0,4.51-.5,5.78-.47l-1.33,1.58s-26.6-.28-26,14.22c0,0-4.54-10.8,15.58-15.66,4.63-1.16,9.36-1.88,14.12-2.17Z"/>
    <path class="cls-9" d="M28.2,33.37c-.75.86-1.39,1.8-1.91,2.82,0,0-21,.5-20.47,11.33,0,0-3.93-9.12,11.68-12.71,3.51-.86,7.09-1.34,10.7-1.44Z"/>
    <path class="cls-7" d="M25.83,37.46s-.47,1.71.23,2.32c0,0-21.28,1.6-17.7,7.79,0,0,.59,2,5.84,3.09,0,0-10.46-.71-6.53-7.34,0,0,3.12-4.81,18.16-5.86Z"/>
    <path class="cls-5" d="M8.68,55.3c.17-.26.46-.43.77-.43.29,0,.56.16.69.42.16.42.2.89.11,1.33-.03.53-.19,1.04-.46,1.5-.17.26-.47.41-.78.41-.29.01-.56-.15-.68-.42-.16-.45-.2-.93-.1-1.4.03-.5.18-.99.45-1.41ZM6.39,58.9c.14.52.45.98.88,1.3.48.29,1.03.43,1.59.41.61.02,1.2-.15,1.71-.48.5-.33.9-.79,1.17-1.32.34-.69.55-1.43.63-2.19.22-.96.09-1.97-.37-2.85-.48-.69-1.29-1.07-2.13-1-.9-.03-1.77.33-2.38,1-.67.82-1.08,1.83-1.17,2.89-.15.74-.12,1.51.07,2.24Z"/>
    <path class="cls-5" d="M16.83,52.74h2l-.48,5c.06.72-.17,1.44-.63,2-.64.56-1.47.84-2.31.79-.56.04-1.12-.06-1.64-.28-.55-.31-.92-.87-1-1.5-.05-.49-.05-.97,0-1.46l.52-4.61h2.11l-.56,4.71c0,.4-.11,1,.75,1,.44,0,.6-.23.68-1l.56-4.65Z"/>
    <path class="cls-5" d="M21.37,54.56h.56c.23,0,.39.32.36.69-.05.77-.5.83-.58.83h-.53l.19-1.52ZM20.72,60.56l.31-3h0c.47.97.88,1.97,1.22,3h2.23s-1-2.75-1.07-3c.1.25,1.41-.6,1.4-2.43-.02-1.31-1.09-2.37-2.4-2.38h-2.82l-.8,7.83,1.93-.02Z"/>
    <path class="cls-5" d="M29.46,54.2c.35-.03.68.15.83.47.17.57.19,1.18.08,1.76-.04.48-.13.95-.27,1.41-.08.23-.21.44-.39.6-.22.13-.48.19-.74.17h-.39l.33-4.41h.55ZM26.84,60.58h2.32c.32-.01.64-.08.94-.21.31-.13.58-.35.77-.63.28-.35.49-.74.64-1.16.21-.63.34-1.29.39-1.95.04-.51.04-1.01,0-1.52-.02-.43-.11-.85-.26-1.25-.12-.33-.33-.62-.61-.83-.3-.2-.66-.31-1.03-.29h-2.56l-.6,7.84Z"/>
    <path class="cls-5" d="M32.91,52.74h4.19l-.2,1.67h-2.35l-.14,1.25h2.15l-.19,1.6h-2.15l-.22,1.54h2.43l-.2,1.77h-4.14l.82-7.83Z"/>
    <path class="cls-5" d="M38.89,52.77h5.11l-.22,2h-1.4l-.68,5.79h-2.4l.7-5.78h-1.3l.19-2.01Z"/>
    <path class="cls-5" d="M1.51,52.77h5.1l-.22,2h-1.39l-.7,5.8H1.9l.68-5.79h-1.29l.22-2.01Z"/>
    <path class="cls-5" d="M45.13,57.19l.41-1,.11,1h-.52ZM45.91,60.57h2.28l-.8-7.83h-2.27l-2.95,7.83h1.94l.42-1.57h1.26l.12,1.57Z"/>
    <path class="cls-5" d="M49.31,52.74h2.4l-.91,7.88h-2.18l.69-7.88Z"/>
    <path class="cls-5" d="M51.19,52.74h2.81l.45,2.53.82-2.53h2.57l.16,2.66.93-2.66h3l-3,7.83h-2.69l.08-3.74-1.27,3.74h-2.9l-.96-7.83Z"/>
    <path class="cls-5" d="M62.52,57.22l.42-.76.08.76h-.5ZM63.27,60.6h2.29l-.69-7.86h-2.56l-2.94,7.86h2l.63-1.66h1.13l.14,1.66Z"/>
    <path class="cls-5" d="M65.89,52.76h2.84l.59,2.24.29-2.23h2.68l-.94,7.81h-2.57l-.86-2.32-.28,2.32h-2.64l.89-7.82Z"/>
    <path class="cls-2" d="M42.17,60.57h.14l-.06-.21-.08.21ZM47.39,52.74h-2.27l-2.23,5.93,4.54-5.53-.04-.4ZM43.98,52.74h-5.09l-.23,2h1.34l-.68,5.79h2.4l.68-5.79h1.4l.18-2ZM22.37,52.74h-.89l2.76,4.26c.36-.54.55-1.18.53-1.83,0-1.33-1.07-2.42-2.4-2.43ZM31.68,53.86c-.12-.33-.33-.62-.61-.83-.31-.21-.69-.31-1.07-.29h-2.56l-.6,7.84h2.32c.32-.01.64-.08.94-.21.31-.13.58-.35.77-.63.28-.35.49-.74.64-1.16.21-.63.34-1.29.39-1.95.04-.51.04-1.01,0-1.52,0-.43-.08-.85-.22-1.25ZM30.37,56.43c-.04.48-.13.95-.27,1.41-.08.23-.21.44-.39.6-.22.13-.48.19-.74.17h-.39l.33-4.41h.55c.35-.03.68.15.83.47.17.57.19,1.18.08,1.76ZM32.09,60.57h4.18l.2-1.77h-2.47l.18-1.54h2.15l.19-1.6h-2.11l.14-1.25h2.35l.2-1.67h-4.19l-.82,7.83Z"/>
    <path d="M232.14,55.43h0c1.03-.37,1.84-1.2,2.18-2.24.27-.68.13-1.46-.37-2-.86-.6-1.9-.86-2.94-.73-1.02,0-2.04.07-3.05.21l-2.45,9.13h2.49l.93-3.48h.4c.77,0,1.06.24,1,1.34-.05.71-.03,1.43.07,2.14h2.53c-.08-.36,0-1.7,0-2.65s-.26-1.44-.79-1.72ZM230.04,54.43h-.65l.59-2.17c.28-.04.57-.06.85-.05.83,0,1.17.39,1,1.08-.24.79-1.01,1.29-1.83,1.19l.04-.05Z"/>
    <path d="M245,51.33c-1.04-.73-2.3-1.06-3.56-.92-1,0-2.01.06-3,.21l-2.44,9.08c.8.12,1.62.17,2.43.16,1.63.07,3.25-.32,4.67-1.14,1.33-.9,2.26-2.26,2.63-3.82.47-1.71.12-2.9-.73-3.57ZM239.48,57.94c-.17.02-.35.02-.52,0l1.49-5.54c.25-.05.51-.07.77-.06,1.48,0,2.34.85,1.86,2.67-.31,1.72-1.83,2.96-3.58,2.93h-.02Z"/>
    <polygon points="201.39 50.48 200.83 52.57 203.2 52.57 201.27 59.75 203.76 59.75 205.69 52.57 206.67 52.57 209.32 50.48 201.39 50.48"/>
    <path d="M213,50.33c-2.83.11-5.25,2.08-5.91,4.84-.69,2.57.32,4.73,3.19,4.73h0c2.9-.02,5.38-2.06,5.97-4.9.66-2.46-.25-4.67-3.25-4.67ZM210.93,57.94h0c-1.2,0-1.63-1.16-1.17-2.82s1.48-2.82,2.68-2.82,1.6,1.21,1.17,2.8-1.47,2.84-2.67,2.84h-.01Z"/>
    <path d="M226.41,50.48h-2.49l-1.42,5.27c-.39,1.47-1.06,2.19-2.05,2.19s-1.25-.79-.87-2.19l1.42-5.27h-2.5l-1.36,5.06c-.79,3,.18,4.36,2.71,4.36s4.42-1.44,5.18-4.3l1-3.8,1.68-1.32h-1.3Z"/>
    <polygon points="248.98 56.01 252.31 56.01 252.85 54 249.52 54 249.92 52.52 252.59 52.52 255.17 50.48 247.97 50.48 245.49 59.75 251.71 59.75 252.25 57.72 248.52 57.72 248.98 56.01"/>
    <polygon points="271.31 59.9 273.88 59.9 276.45 50.33 273.88 50.33 271.31 59.9"/>
    <path d="M287.1,50.33l-1.51,3.51c-.47,1.13-.94,2.26-1.37,3.34h0c.16-1.08.29-2.06.42-3.17l.39-3.68h-2.74l-1.55,3.51c-.53,1.18-1,2.33-1.48,3.41h0c.12-1,.29-2.26.42-3.37l.25-2.31,1.58-1.24h-4.19l-.37,9.57h2.85l1.72-3.75c.4-.83.77-1.74,1.23-2.87h0c-.18,1.14-.29,2-.38,2.87l-.37,3.75h2.8l4.92-9.57h-2.62Z"/>
    <polygon points="257.18 50.33 256.6 52.49 259.04 52.49 257.05 59.9 259.62 59.9 261.61 52.49 262.42 52.49 265.16 50.33 257.18 50.33"/>
    <path d="M309.05,50.33h-4.05l-.61,2.27c-.36,1.32-.66,2.65-.88,4h0c-.12-1.13-.32-2.25-.61-3.35l-.73-2.94h-3l-2.56,9.57h2.34l.63-2.36c.42-1.54.78-3,1-4.27h.06c.16,1.16.38,2.32.68,3.45l.78,3.18h2.7l2.1-7.83,2.15-1.72Z"/>
    <path d="M297.19,50.33h-5.32l-5.35,9.57h2.66l1.13-2.21h2.48v2.21h2.77l-.24-8.1,1.87-1.47ZM291.19,55.8l.87-1.72c.29-.54.64-1.32.94-1.89h0v3.61h-1.81Z"/>
    <path d="M271.88,50.33h-5.2l-5.35,9.57h2.67l1.14-2.21h2.47v2.21h2.77l-.25-8.19,1.75-1.38ZM266,55.8l.88-1.72c.28-.54.64-1.32.93-1.89h0v3.61h-1.81Z"/>
    <path d="M67.59,43.18l4.79-17.87h17.49l-4.79,17.87h-2.92l.21-.77h-11.74l-.2.77h-2.84ZM83.26,31.37l1.65,1c-1.1,1.49-2.3,2.9-3.59,4.22v.16c.06.35.16.53.32.53s.37-.15.51-.46c.3-.35.55-.74.76-1.15.07-.09.12-.19.16-.3.2.24.42.48.66.69.08.12.18.22.3.3l2.31-8.59h-11.78l-3.29,12.23h11.73l.76-2.84c-.25.36-.54.74-.85,1.15-.48.87-1.38,1.43-2.38,1.45-.68.03-1.29-.41-1.48-1.07l-1.55,1.31s-.1-.18-.2-.39c-.09-.11-.16-.24-.2-.38-1.58.15-3.28.31-5.11.46l.21-2.22c.57,0,1.56-.11,3-.16s2.12-.15,2.58-.15c.44-.31.86-.64,1.26-1,.14-1.69.44-3.36.88-5h-5.92l.61-2.16h5.76c.01-.15.01-.31,0-.46l.11-.39h2.52l-.23.85h.69v-.69l1.73-.16-.08.85h.54l-.58,2.15h-2.82c-.09.33-.15.66-.2,1-.1.35-.17.71-.21,1.08.14-.22.3-.43.48-.62.39-.53.68-.94.94-1.24ZM74.18,31.75h5.06l-1.33,5h-5.07l1.34-5ZM76.75,33.59h-1.07l-.35,1.31h1.07l.35-1.31Z"/>
    <path d="M105.5,25l2.25-.08c0,.51-.09,1-.17,1.46h4.07l-.65,2.53-2.56,3c.41.65.94,1.22,1.56,1.68-.12.17-.22.35-.3.54-.39.66-.78,1.38-1.19,2.15-.09-.11-.19-.21-.3-.31l-.32-.23-.58,2.15h-1.61c.4.41,1,1,1.65,1.84.28.26.54.54.78.84l-2.24,1.77c-.64-.83-1.35-1.61-2.1-2.34l-.28-.39,2.14-1.68h-1.84l-.8,3c-.19,1.16-1.2,2.01-2.38,2-.57.05-1.35.08-2.32.08.04-.69.02-1.38-.06-2.07l-1.2.77-1.17.92c-.34-.63-.75-1.22-1.21-1.77,1.43-.97,2.73-1.94,3.92-2.91h-.84l.41-1.54-.39.31c-.16.09-.32.19-.46.31-.07-.33-.11-.66-.12-1-.09-.41-.17-.72-.21-.92-.04.57-.14,1.14-.3,1.69-.51,2.09-1.51,3.26-3,3.53-.32.1-.66.15-1,.15v-1.23l-1.07,4h-2.34l4.73-17.79h5.76l-.66,2.45-1,1.85c1.43-1.44,2.67-3.07,3.67-4.84l2.31.23c-.27.46-.53.87-.78,1.23h1.91v-.15c.05-.42.15-.83.29-1.23ZM95.74,27.91l-2.59,9.67h.31c.47,0,.83-.51,1.06-1.38.23-1.01.23-2.06,0-3.07l2.39-5.22h-1.17ZM96.65,32.82c.23.53.35,1.11.35,1.69.79-.43,1.53-.93,2.22-1.51l-.67-.92-.3.23c-.09.11-.2.21-.31.3,0-.66-.06-1.38-.11-2.14l-1.18,2.35ZM99.89,30.75c.13.17.27.32.42.46l.33.46c.13-.11.24-.24.34-.38.06-.09.13-.16.21-.23-.23-.32-.48-.63-.75-.92l-.55.61ZM101.3,33.82c-.32.3-.65.58-1,.84-.45.36-.78.65-1,.85h8.44c-.66-.63-1.22-1.35-1.65-2.15l-.31,1.15h-4.68l.2-.69ZM99.68,40.73c.54.05.87-.23,1-.85l.53-2h-2.46l1.41,1.61c-.57.41-1.12.82-1.64,1.23h1.16ZM101.89,28.45l-.1.08c-.02.06-.06.11-.11.15.3.21.57.47.79.77.07-.1.2-.28.37-.54.08-.16.18-.31.28-.46h-1.23ZM105,29.14c-.62,1.05-1.32,2.06-2.1,3h2.61c-.35-.96-.52-1.98-.51-3ZM109,28.45h-1.54c0,.52.07,1.04.21,1.54l1.33-1.54Z"/>
    <path d="M122.72,24.77l3.78.23c-.17.26-.45.72-.83,1.38-.08.19-.18.37-.3.54h7.21l-4.34,16.18h-3.24l.29-1.07h-9.19l-.28,1.07h-3.23l4.34-16.18h4.76c.41-.68.75-1.4,1.03-2.15ZM128.64,29.6h-9.21l-.43,1.69h9.21l.43-1.69ZM118.32,33.74l-.43,1.62h9.21l.43-1.62h-9.21ZM117.24,37.81l-.46,1.69h9.22l.45-1.69h-9.21Z"/>
    <path d="M134,43.18l4.17-15.57h6.83l.74-2.76h3.23l-.74,2.76h6.77l-4.17,15.57h-3.14l.31-1.18h-10.49l-.33,1.23-3.18-.05ZM140.54,30.52l-.78,2.92h3.6l.78-2.92h-3.6ZM139,36.28l-.78,2.91h3.6l.78-2.91h-3.6ZM151.05,30.52h-3.65l-.79,2.92h3.69l.75-2.92ZM145.82,36.28l-.78,2.91h3.69l.78-2.91h-3.69Z"/>
    <path d="M160.43,29.6h6.14l.25-.92h-7.06l.61-2.3h7.06l.43-1.61h3.07l-.43,1.61h7.06l-.62,2.3h-7.06l-.24.92h6.13l-2.22,8.29h-6.13l-.25.92h7.75l-.6,2.22h-7.75l-.57,2.15h-3.07l.58-2.15h-7.75l.59-2.22h7.75l.25-.92h-6.14l2.22-8.29ZM162.94,31.67l-.3,1.15h3.06l.31-1.15h-3.07ZM162.14,34.67l-.31,1.16h3.07l.31-1.16h-3.07ZM172.14,31.67h-3.07l-.31,1.15h3.07l.31-1.15ZM168,35.82h3l.31-1.16h-3.07l-.24,1.16Z"/>
    <path d="M181.31,28.76l.76-2.84h5.29l-.76,2.84h-1.3l-.93,3.45h1.23l-.74,2.79h-1.23l-1,3.76c.48,0,.95-.05,1.42-.15l-.15.53c1.46-.39,2.88-.9,4.25-1.53h-2.92l1.16-4.3h11.12l-1.13,4.22.58.69c-.39.31-.96.72-1.71,1.23-.37.26-.66.46-.85.62.66.33,1.37.59,2.09.76-.6.66-1.13,1.39-1.57,2.17-1.55-.46-2.96-1.31-4.1-2.45-.17.6-.28,1.22-.34,1.84-.38.1-.93.23-1.64.38-1.71.31-2.93.56-3.65.77l-.19-2.28h.38c.13-.03.26-.06.4-.07l.13-.46-1.93.61c-.1-.41-.2-.89-.3-1.46l-.37,1.38-1.29.23c-1.81.26-3.2.49-4.18.69l.33-2.91,1.72-.16,1.11-4.11h-1.2l.74-2.76h1.22l.93-3.45-1.38-.03ZM186.17,30.68h13l-.56,2.07h-13l.56-2.07ZM188.17,25.54h11.73l-1.23,4.6h-11.75l1.25-4.6ZM190.17,27.22l-.31,1.15h.92l.31-1.15h-.92ZM194,35.82l.21-.77h-5.45l-.2.77h5.44ZM189.94,38.65l-1,.69-.39,1.46c.81-.15,1.54-.3,2.2-.46-.34-.53-.62-1.09-.82-1.69h.01ZM193.08,27.22l-.3,1.15h1l.31-1.15h-1.01ZM192.38,37.58c.12.43.29.84.51,1.23.2-.16.48-.36.86-.62s.66-.46.85-.61h-2.22ZM197.07,27.22h-1l-.3,1.15h1l.3-1.15Z"/>
    <path d="M216.67,26.69c1.43,1.74,2.77,3.56,4,5.44l-2.93,1.77-.88-1.31c-1,0-2.67.06-4.95.16s-3.92.1-5,.15c-1.36.1-2.52.23-3.48.38l-.7-2.83c.57,0,1.16,0,1.79-.08,2.35-1.77,4.6-3.66,6.74-5.68l3.08,1.38c-.57.41-1.84,1.36-3.83,2.84-.73.62-1.28,1.05-1.65,1.31l6.19-.23-1.05-1.69,2.67-1.61ZM200.9,43.18l2.4-9h15l-2.41,9h-3.14l.29-1.07h-8.67l-.37,1.07h-3.1ZM205.71,37l-.71,2.5h8.67l.68-2.53-8.64.03Z"/>
    <path d="M223.51,33.13c2.59-1.45,4.81-3.47,6.49-5.91l2.67,1.23c-2.1,2.96-4.76,5.49-7.83,7.44-.16-.35-.45-1-.88-1.84l-.45-.92ZM236,34.59c.63,1.07,1.6,2.91,2.89,5.52.33.67.59,1.15.76,1.46l-3.23,1.76c-.11-.16-.19-.34-.24-.53-.09-.34-.21-.68-.35-1-3.52.15-7.71.43-12.58.84l-.1-2.76,1.48-.08c2.8-2.77,5.45-5.68,7.94-8.74l2.74,1.53c-.77.77-2.32,2.35-4.65,4.76-.99,1.02-1.7,1.76-2.13,2.22l6.14-.3-1.38-3.15,2.71-1.53ZM243.3,32c-.23.31-.64.79-1.23,1.46s-1,1.22-1.33,1.53c-2.55-1.79-4.23-4.58-4.62-7.67h-4.91l.64-2.38h7.21c.3,2.86,1.85,5.45,4.24,7.06Z"/>
    <path d="M251.71,43.18l2.06-7.67h-.39c.01-.85-.07-1.7-.24-2.53.16-.01.32-.04.48-.08,1.09-.2,2.17-.48,3.22-.84-.3-.42-.54-.89-.7-1.38-.28.17-.54.38-.78.61l-.39.31c-.05-.21-.15-.51-.29-.92-.08-.29-.19-.57-.31-.85l-.76,2.84h-1.54l-.43,1.61h1.61l-.68,2.53h-1.57l-.63,2.19c.59-.1,1.2-.18,1.82-.23l-.74,2.76c-2.75.36-5.32.77-7.69,1.23l.34-3h.23c.13-.04.27-.07.41-.07l1.68-6.29h2.07l-1.62,6.06c.16-.01.32-.04.48-.08h.31l1.8-6.75h-2.68l1.95-7.29h6.83l-.95,3.53c1.53-1.16,2.86-2.56,3.95-4.14l3,.15c-.18.27-.37.53-.59.77l-.59.77h5.22l-.7,2.61c-.92,1.08-1.92,2.08-3,3,.96.24,1.94.42,2.93.53-.59.86-1.11,1.76-1.57,2.69-1.52-.25-3-.74-4.36-1.46-1.63.74-3.35,1.28-5.11,1.61h9.28l-2.07,7.78h-2.91l.27-1h-3.53l-.27,1h-2.85ZM250.09,30.06h1.61l.57-2.15h-1.61l-.57,2.15ZM261.83,28.91h-3.53c.32.72.77,1.37,1.32,1.92.83-.53,1.57-1.18,2.21-1.92h0ZM255.93,38l-.45,1.69h3.52l.46-1.69h-3.53Z"/>
    <path d="M269.6,29.45h7c.7-2.25,1.16-3.76,1.37-4.53h3.45c-.6,1.84-1,3.35-1.37,4.53h7.06l-.82,3.07h-7.06c-.22,3.88,1.64,6.39,5.58,7.52-.27.25-.68.61-1.21,1.07-.88.82-1.51,1.43-1.87,1.84-2.87-1.01-4.9-3.58-5.21-6.6-1.59,2.67-4.6,4.94-9.05,6.83-.33-.98-.8-1.91-1.4-2.76,4.96-1.74,8.12-4.37,9.48-7.9h-6.75l.8-3.07Z"/>
    <path d="M290.72,32h4.53l.14-.54h-3.06l.34-1.3h3.07l.15-.54h-2.69l.25-.92h-1.69l.8-3h7.37l.24-.92h2.92l-.25.92h7.37l-.81,3h-1.68l-.25.92h-2.76l-.15.54h3.15l-.35,1.3h-3.14l-.15.54h4.6l-.41,1.53h-3.68c1.18.59,2.44,1,3.74,1.23-.16.21-.41.57-.75,1.08-.29.34-.57.7-.82,1.07-.36-.09-.71-.22-1.05-.38-.15-.04-.29-.09-.42-.16l-1.13,4.22h-13.5l1.13-4.22-1.88.63c-.12-.51-.26-1.22-.42-2.14,1.53-.36,3.04-.81,4.52-1.35h-3.68l.4-1.51ZM295.46,40.67l.49,1.61c-.59.1-1.55.23-2.87.38l-4.63.69c-.17-.71-.31-1.43-.42-2.14,1.24-.06,3.16-.18,5.78-.39.79-.06,1.34-.12,1.65-.17v.02ZM302.31,27.67h2.91l-.14.54h1.53l.23-.84h-11.84l-.22.84h1.46l.14-.54h2.92l-.15.54h3l.16-.54ZM295,35.43l-.15.54h7.52l.14-.54h-7.51ZM294.54,37.12l-.14.54h7.52l.14-.54h-7.52ZM294.11,38.73l-.14.54h7.52l.14-.54h-7.52ZM297.58,33.51c-.34.24-.71.45-1.09.62h5.3c-.28-.16-.54-.37-.76-.62h-3.45ZM298.78,29.6l-.14.54h3l.14-.54h-3ZM298.29,31.44l-.15.54h3l.14-.54h-2.99ZM299.2,40.65l7.2.61-1.3,2-7.18-1,1.28-1.61Z"/>
  </g>
</svg>